{
   "accessors" : [
      {
         "bufferView" : 0,
         "byteOffset" : 0,
         "componentType" : 5123,
         "count" : 65535,
         "max" : [ 65534 ],
         "min" : [ 0 ],
         "name" : "buffer-0-group-0-mesh-0-indices",
         "type" : "SCALAR"
      },
      {
         "bufferView" : 2,
         "byteOffset" : 0,
         "componentType" : 5126,
         "count" : 65535,
         "max" : [ 7.981637954711914, 101.6861343383789, 17.51228141784668 ],
         "min" : [ -15.50524520874023, 0, -0.4817509949207306 ],
         "name" : "buffer-0-group-0-mesh-0-position",
         "type" : "VEC3"
      },
      {
         "bufferView" : 2,
         "byteOffset" : 786420,
         "componentType" : 5126,
         "count" : 65535,
         "max" : [ 0.9999405741691589, 0.9973055124282837, 0.9999942183494568 ],
         "min" : [ -0.9999992847442627, -0.9999996423721313, -0.9996250867843628 ],
         "name" : "buffer-0-group-0-mesh-0-normal",
         "type" : "VEC3"
      },
      {
         "bufferView" : 1,
         "byteOffset" : 0,
         "componentType" : 5126,
         "count" : 65535,
         "max" : [ 0.9995759725570679, 0 ],
         "min" : [ 0, -0.9995099902153015 ],
         "name" : "buffer-0-group-0-mesh-0-texcoord",
         "type" : "VEC2"
      },
      {
         "bufferView" : 0,
         "byteOffset" : 131070,
         "componentType" : 5123,
         "count" : 65535,
         "max" : [ 65534 ],
         "min" : [ 0 ],
         "name" : "buffer-0-group-0-mesh-1-indices",
         "type" : "SCALAR"
      },
      {
         "bufferView" : 2,
         "byteOffset" : 1572840,
         "componentType" : 5126,
         "count" : 65535,
         "max" : [ 18.12687683105469, 101.7969360351562, 15.92930221557617 ],
         "min" : [ -12.58887386322021, 0, -3.740987062454224 ],
         "name" : "buffer-0-group-0-mesh-1-position",
         "type" : "VEC3"
      },
      {
         "bufferView" : 2,
         "byteOffset" : 2359260,
         "componentType" : 5126,
         "count" : 65535,
         "max" : [ 0.9999054670333862, 0.9998518228530884, 0.9999444484710693 ],
         "min" : [ -0.9999598860740662, -0.962507426738739, -0.9997820854187012 ],
         "name" : "buffer-0-group-0-mesh-1-normal",
         "type" : "VEC3"
      },
      {
         "bufferView" : 1,
         "byteOffset" : 524280,
         "componentType" : 5126,
         "count" : 65535,
         "max" : [ 0.999206006526947, 0 ],
         "min" : [ 0, -0.999334990978241 ],
         "name" : "buffer-0-group-0-mesh-1-texcoord",
         "type" : "VEC2"
      },
      {
         "bufferView" : 0,
         "byteOffset" : 262140,
         "componentType" : 5123,
         "count" : 65535,
         "max" : [ 65534 ],
         "min" : [ 0 ],
         "name" : "buffer-0-group-0-mesh-2-indices",
         "type" : "SCALAR"
      },
      {
         "bufferView" : 2,
         "byteOffset" : 3145680,
         "componentType" : 5126,
         "count" : 65535,
         "max" : [ 18.40416717529297, 82.23176574707031, 15.69069766998291 ],
         "min" : [ -13.71364212036133, 0, -7.425346851348877 ],
         "name" : "buffer-0-group-0-mesh-2-position",
         "type" : "VEC3"
      },
      {
         "bufferView" : 2,
         "byteOffset" : 3932100,
         "componentType" : 5126,
         "count" : 65535,
         "max" : [ 0.9999945759773254, 0.9650003910064697, 0.9984426498413086 ],
         "min" : [ -0.9999885559082031, -0.9913936257362366, -0.99997878074646 ],
         "name" : "buffer-0-group-0-mesh-2-normal",
         "type" : "VEC3"
      },
      {
         "bufferView" : 1,
         "byteOffset" : 1048560,
         "componentType" : 5126,
         "count" : 65535,
         "max" : [ 0.9994120001792908, 0 ],
         "min" : [ 0, -0.9997580051422119 ],
         "name" : "buffer-0-group-0-mesh-2-texcoord",
         "type" : "VEC2"
      },
      {
         "bufferView" : 0,
         "byteOffset" : 393210,
         "componentType" : 5123,
         "count" : 65535,
         "max" : [ 65534 ],
         "min" : [ 0 ],
         "name" : "buffer-0-group-0-mesh-3-indices",
         "type" : "SCALAR"
      },
      {
         "bufferView" : 2,
         "byteOffset" : 4718520,
         "componentType" : 5126,
         "count" : 65535,
         "max" : [ 13.71736907958984, 73.39889526367188, 13.0653247833252 ],
         "min" : [ -11.34507656097412, 0, -7.425346851348877 ],
         "name" : "buffer-0-group-0-mesh-3-position",
         "type" : "VEC3"
      },
      {
         "bufferView" : 2,
         "byteOffset" : 5504940,
         "componentType" : 5126,
         "count" : 65535,
         "max" : [ 0.9999991655349731, 0.974306583404541, 0.9999749660491943 ],
         "min" : [ -0.9998871684074402, -0.9995420575141907, -0.9999898076057434 ],
         "name" : "buffer-0-group-0-mesh-3-normal",
         "type" : "VEC3"
      },
      {
         "bufferView" : 1,
         "byteOffset" : 1572840,
         "componentType" : 5126,
         "count" : 65535,
         "max" : [ 0.9997580051422119, 0 ],
         "min" : [ 0, -0.9994120001792908 ],
         "name" : "buffer-0-group-0-mesh-3-texcoord",
         "type" : "VEC2"
      },
      {
         "bufferView" : 0,
         "byteOffset" : 524280,
         "componentType" : 5123,
         "count" : 52500,
         "max" : [ 52499 ],
         "min" : [ 0 ],
         "name" : "buffer-0-group-0-mesh-4-indices",
         "type" : "SCALAR"
      },
      {
         "bufferView" : 2,
         "byteOffset" : 6291360,
         "componentType" : 5126,
         "count" : 52500,
         "max" : [ 13.20666122436523, 83.85472106933594, 16.00065040588379 ],
         "min" : [ -15.1798210144043, 0, -10.40762901306152 ],
         "name" : "buffer-0-group-0-mesh-4-position",
         "type" : "VEC3"
      },
      {
         "bufferView" : 2,
         "byteOffset" : 6921360,
         "componentType" : 5126,
         "count" : 52500,
         "max" : [ 0.9999446868896484, 0.9982308149337769, 0.9998343586921692 ],
         "min" : [ -0.9999633431434631, -0.9999877214431763, -0.9999947547912598 ],
         "name" : "buffer-0-group-0-mesh-4-normal",
         "type" : "VEC3"
      },
      {
         "bufferView" : 1,
         "byteOffset" : 2097120,
         "componentType" : 5126,
         "count" : 52500,
         "max" : [ 0.9991710186004639, 0 ],
         "min" : [ 0, -0.9992390275001526 ],
         "name" : "buffer-0-group-0-mesh-4-texcoord",
         "type" : "VEC2"
      }
   ],
   "asset" : {
      "generator" : "Obj2GltfConverter",
      "version" : "2.0"
   },
   "bufferViews" : [
      {
         "buffer" : 0,
         "byteLength" : 629280,
         "byteOffset" : 0,
         "byteStride" : 0,
         "name" : "buffer-0-bufferview-ushort",
         "target" : 34963
      },
      {
         "buffer" : 0,
         "byteLength" : 2517120,
         "byteOffset" : 629280,
         "byteStride" : 8,
         "name" : "buffer-0-bufferview-vec2",
         "target" : 34962
      },
      {
         "buffer" : 0,
         "byteLength" : 7551360,
         "byteOffset" : 3146400,
         "byteStride" : 12,
         "name" : "buffer-0-bufferview-vec3",
         "target" : 34962
      },
      {
         "buffer" : 0,
         "byteLength" : 1,
         "byteOffset" : 0,
         "name" : "buffer-0-bufferview-vec4"
      }
   ],
   "buffers" : [
      {
         "byteLength" : 10697760,
         "name" : "buffer-0",
         "uri" : "Julio_Rodriquez.bin"
      }
   ],
   "images" : [
      {
         "mimeType" : "image/jpeg",
         "name" : "None-image",
         "uri" : "Julio_Rodriquez.jpg"
      }
   ],
   "materials" : [
      {
         "alphaMode" : "OPAQUE",
         "doubleSided" : true,
         "name" : "None",
         "pbrMetallicRoughness" : {
            "baseColorFactor" : [ 0.8, 0.8, 0.8, 1 ],
            "baseColorTexture" : {
               "index" : 0,
               "texCoord" : 0
            },
            "metallicFactor" : 0,
            "roughnessFactor" : 1
         }
      }
   ],
   "meshes" : [
      {
         "name" : "buffer-0-mesh-0",
         "primitives" : [
            {
               "attributes" : {
                  "NORMAL" : 2,
                  "POSITION" : 1,
                  "TEXCOORD_0" : 3
               },
               "indices" : 0,
               "material" : 0,
               "mode" : 4
            },
            {
               "attributes" : {
                  "NORMAL" : 6,
                  "POSITION" : 5,
                  "TEXCOORD_0" : 7
               },
               "indices" : 4,
               "material" : 0,
               "mode" : 4
            },
            {
               "attributes" : {
                  "NORMAL" : 10,
                  "POSITION" : 9,
                  "TEXCOORD_0" : 11
               },
               "indices" : 8,
               "material" : 0,
               "mode" : 4
            },
            {
               "attributes" : {
                  "NORMAL" : 14,
                  "POSITION" : 13,
                  "TEXCOORD_0" : 15
               },
               "indices" : 12,
               "material" : 0,
               "mode" : 4
            },
            {
               "attributes" : {
                  "NORMAL" : 18,
                  "POSITION" : 17,
                  "TEXCOORD_0" : 19
               },
               "indices" : 16,
               "material" : 0,
               "mode" : 4
            }
         ]
      }
   ],
   "nodes" : [
      {
         "mesh" : 0,
         "name" : "node-0"
      }
   ],
   "samplers" : [
      {
         "name" : "None-sampler",
         "wrapS" : 10497,
         "wrapT" : 10497
      }
   ],
   "scenes" : [
      {
         "name" : "scene-0",
         "nodes" : [ 0 ]
      }
   ],
   "textures" : [
      {
         "name" : "None-texture",
         "sampler" : 0,
         "source" : 0
      }
   ]
}
